<svg width="28" height="24" viewBox="0 0 28 24" fill="none" xmlns="http://www.w3.org/2000/svg">
<path d="M15.9641 8C15.9641 9.88562 15.9641 10.8284 16.6321 11.4142C17.3001 12 18.3751 12 20.5253 12C22.6755 12 23.7506 12 24.4185 11.4142C25.0865 10.8284 25.0865 9.88562 25.0865 8C25.0865 6.11438 25.0865 5.17157 24.4185 4.58579C23.7506 4 22.6755 4 20.5253 4C18.3751 4 17.3001 4 16.6321 4.58579C15.9641 5.17157 15.9641 6.11438 15.9641 8Z" fill="#FAFAFA" stroke="#FAFAFA" stroke-width="1.5"/>
<path d="M15.9641 7V11.4821C15.9641 15.4547 18.8328 18.8237 22.8059 20" stroke="#FAFAFA" stroke-width="1.5" stroke-linecap="round"/>
<path d="M2.28053 8C2.28053 9.88562 2.28053 10.8284 2.94851 11.4142C3.6165 12 4.69158 12 6.84172 12C8.99187 12 10.0669 12 10.7349 11.4142C11.4029 10.8284 11.4029 9.88562 11.4029 8C11.4029 6.11438 11.4029 5.17157 10.7349 4.58579C10.0669 4 8.99187 4 6.84172 4C4.69158 4 3.6165 4 2.94851 4.58579C2.28053 5.17157 2.28053 6.11438 2.28053 8Z" fill="#FAFAFA" stroke="#FAFAFA" stroke-width="1.5"/>
<path d="M2.28053 7V11.4821C2.28053 15.4547 5.14918 18.8237 9.12232 20" stroke="#FAFAFA" stroke-width="1.5" stroke-linecap="round"/>
</svg>
